<mxfile host="app.diagrams.net" modified="2023-12-04T10:12:31.890Z" agent="Mozilla/5.0 (Macintosh; Intel Mac OS X 10_15_7) AppleWebKit/537.36 (KHTML, like Gecko) Chrome/119.0.0.0 Safari/537.36" etag="0cDfVG-8zvOUyEQdODEb" version="22.1.5" type="github">
  <diagram name="Page-1" id="2a216829-ef6e-dabb-86c1-c78162f3ba2b">
    <mxGraphModel dx="162" dy="841" grid="1" gridSize="10" guides="1" tooltips="1" connect="1" arrows="1" fold="1" page="1" pageScale="1" pageWidth="850" pageHeight="1100" background="none" math="0" shadow="0">
      <root>
        <mxCell id="0" />
        <mxCell id="1" parent="0" />
        <mxCell id="vRBI4vWx7eo8pq1-qWPK-19" style="edgeStyle=none;curved=1;rounded=0;orthogonalLoop=1;jettySize=auto;html=1;entryX=0;entryY=0;entryDx=0;entryDy=0;fontSize=12;startSize=8;endSize=8;" edge="1" parent="1" source="vRBI4vWx7eo8pq1-qWPK-1" target="vRBI4vWx7eo8pq1-qWPK-9">
          <mxGeometry relative="1" as="geometry" />
        </mxCell>
        <mxCell id="vRBI4vWx7eo8pq1-qWPK-1" value="Current production" style="ellipse;whiteSpace=wrap;html=1;fontSize=16;" vertex="1" parent="1">
          <mxGeometry x="1135" y="430" width="120" height="100" as="geometry" />
        </mxCell>
        <mxCell id="vRBI4vWx7eo8pq1-qWPK-2" value="Model of Nepali farmers decision to switch from current production to commercial turmeric production" style="text;whiteSpace=wrap;fontSize=16;fontStyle=1" vertex="1" parent="1">
          <mxGeometry x="950" y="80" width="560" height="60" as="geometry" />
        </mxCell>
        <mxCell id="vRBI4vWx7eo8pq1-qWPK-3" value="&lt;span style=&quot;color: rgb(0, 0, 0); font-family: Helvetica; font-size: 16px; font-style: italic; font-variant-ligatures: normal; font-variant-caps: normal; letter-spacing: normal; orphans: 2; text-align: left; text-indent: 0px; text-transform: none; widows: 2; word-spacing: 0px; -webkit-text-stroke-width: 0px; background-color: rgb(251, 251, 251); text-decoration-thickness: initial; text-decoration-style: initial; text-decoration-color: initial; float: none; display: inline !important;&quot;&gt;A cost benefit model&lt;/span&gt;&lt;span style=&quot;color: rgb(0, 0, 0); font-family: Helvetica; font-size: 16px; font-style: italic; font-variant-ligatures: normal; font-variant-caps: normal; letter-spacing: normal; orphans: 2; text-align: left; text-indent: 0px; text-transform: none; widows: 2; word-spacing: 0px; -webkit-text-stroke-width: 0px; background-color: rgb(251, 251, 251); text-decoration-thickness: initial; text-decoration-style: initial; text-decoration-color: initial; float: none; display: inline !important;&quot;&gt;&amp;nbsp;of the expected livelihoods effect&amp;nbsp;&lt;/span&gt;" style="text;whiteSpace=wrap;html=1;fontSize=16;fontStyle=0" vertex="1" parent="1">
          <mxGeometry x="970" y="121" width="450" height="40" as="geometry" />
        </mxCell>
        <mxCell id="vRBI4vWx7eo8pq1-qWPK-20" style="edgeStyle=none;curved=1;rounded=0;orthogonalLoop=1;jettySize=auto;html=1;exitX=1;exitY=0.5;exitDx=0;exitDy=0;entryX=0;entryY=0.5;entryDx=0;entryDy=0;fontSize=12;startSize=8;endSize=8;" edge="1" parent="1" source="vRBI4vWx7eo8pq1-qWPK-4" target="vRBI4vWx7eo8pq1-qWPK-12">
          <mxGeometry relative="1" as="geometry" />
        </mxCell>
        <mxCell id="vRBI4vWx7eo8pq1-qWPK-27" style="edgeStyle=none;curved=1;rounded=0;orthogonalLoop=1;jettySize=auto;html=1;entryX=0;entryY=0.5;entryDx=0;entryDy=0;fontSize=12;startSize=8;endSize=8;" edge="1" parent="1" source="vRBI4vWx7eo8pq1-qWPK-4" target="vRBI4vWx7eo8pq1-qWPK-10">
          <mxGeometry relative="1" as="geometry" />
        </mxCell>
        <mxCell id="vRBI4vWx7eo8pq1-qWPK-4" value="Turmeric production" style="ellipse;whiteSpace=wrap;html=1;fontSize=16;" vertex="1" parent="1">
          <mxGeometry x="1170" y="285" width="120" height="100" as="geometry" />
        </mxCell>
        <mxCell id="vRBI4vWx7eo8pq1-qWPK-30" style="edgeStyle=none;curved=1;rounded=0;orthogonalLoop=1;jettySize=auto;html=1;fontSize=12;startSize=8;endSize=8;" edge="1" parent="1" source="vRBI4vWx7eo8pq1-qWPK-5" target="vRBI4vWx7eo8pq1-qWPK-28">
          <mxGeometry relative="1" as="geometry" />
        </mxCell>
        <mxCell id="vRBI4vWx7eo8pq1-qWPK-5" value="NPV" style="ellipse;whiteSpace=wrap;html=1;fontSize=16;" vertex="1" parent="1">
          <mxGeometry x="1410" y="360" width="70" height="60" as="geometry" />
        </mxCell>
        <mxCell id="vRBI4vWx7eo8pq1-qWPK-6" value="Costs" style="ellipse;whiteSpace=wrap;html=1;fontSize=16;" vertex="1" parent="1">
          <mxGeometry x="1290" y="430" width="60" height="50" as="geometry" />
        </mxCell>
        <mxCell id="vRBI4vWx7eo8pq1-qWPK-21" style="edgeStyle=none;curved=1;rounded=0;orthogonalLoop=1;jettySize=auto;html=1;exitX=1;exitY=0.5;exitDx=0;exitDy=0;fontSize=12;startSize=8;endSize=8;entryX=0.023;entryY=0.666;entryDx=0;entryDy=0;entryPerimeter=0;" edge="1" parent="1" source="vRBI4vWx7eo8pq1-qWPK-7" target="vRBI4vWx7eo8pq1-qWPK-34">
          <mxGeometry relative="1" as="geometry" />
        </mxCell>
        <mxCell id="vRBI4vWx7eo8pq1-qWPK-7" value="Policy" style="ellipse;whiteSpace=wrap;html=1;fontSize=16;" vertex="1" parent="1">
          <mxGeometry x="910" y="260" width="120" height="100" as="geometry" />
        </mxCell>
        <mxCell id="vRBI4vWx7eo8pq1-qWPK-8" value="Risks" style="ellipse;whiteSpace=wrap;html=1;fontSize=16;" vertex="1" parent="1">
          <mxGeometry x="1240" y="570" width="60" height="50" as="geometry" />
        </mxCell>
        <mxCell id="vRBI4vWx7eo8pq1-qWPK-24" style="edgeStyle=none;curved=1;rounded=0;orthogonalLoop=1;jettySize=auto;html=1;fontSize=12;startSize=8;endSize=8;entryX=0;entryY=0.5;entryDx=0;entryDy=0;" edge="1" parent="1" source="vRBI4vWx7eo8pq1-qWPK-9" target="vRBI4vWx7eo8pq1-qWPK-29">
          <mxGeometry relative="1" as="geometry" />
        </mxCell>
        <mxCell id="vRBI4vWx7eo8pq1-qWPK-9" value="Benefits" style="ellipse;whiteSpace=wrap;html=1;fontSize=16;" vertex="1" parent="1">
          <mxGeometry x="1300" y="500" width="70" height="50" as="geometry" />
        </mxCell>
        <mxCell id="vRBI4vWx7eo8pq1-qWPK-16" style="edgeStyle=none;curved=1;rounded=0;orthogonalLoop=1;jettySize=auto;html=1;fontSize=12;startSize=8;endSize=8;entryX=0.015;entryY=0.447;entryDx=0;entryDy=0;entryPerimeter=0;" edge="1" parent="1" source="vRBI4vWx7eo8pq1-qWPK-10" target="vRBI4vWx7eo8pq1-qWPK-5">
          <mxGeometry relative="1" as="geometry" />
        </mxCell>
        <mxCell id="vRBI4vWx7eo8pq1-qWPK-10" value="Costs" style="ellipse;whiteSpace=wrap;html=1;fontSize=16;" vertex="1" parent="1">
          <mxGeometry x="1280" y="370" width="60" height="50" as="geometry" />
        </mxCell>
        <mxCell id="vRBI4vWx7eo8pq1-qWPK-15" style="edgeStyle=none;curved=1;rounded=0;orthogonalLoop=1;jettySize=auto;html=1;fontSize=12;startSize=8;endSize=8;" edge="1" parent="1" source="vRBI4vWx7eo8pq1-qWPK-11" target="vRBI4vWx7eo8pq1-qWPK-12">
          <mxGeometry relative="1" as="geometry" />
        </mxCell>
        <mxCell id="vRBI4vWx7eo8pq1-qWPK-11" value="Risks" style="ellipse;whiteSpace=wrap;html=1;fontSize=16;" vertex="1" parent="1">
          <mxGeometry x="1260" y="240" width="60" height="50" as="geometry" />
        </mxCell>
        <mxCell id="vRBI4vWx7eo8pq1-qWPK-23" style="edgeStyle=none;curved=1;rounded=0;orthogonalLoop=1;jettySize=auto;html=1;entryX=0;entryY=0;entryDx=0;entryDy=0;fontSize=12;startSize=8;endSize=8;" edge="1" parent="1" source="vRBI4vWx7eo8pq1-qWPK-12" target="vRBI4vWx7eo8pq1-qWPK-5">
          <mxGeometry relative="1" as="geometry" />
        </mxCell>
        <mxCell id="vRBI4vWx7eo8pq1-qWPK-12" value="Benefits" style="ellipse;whiteSpace=wrap;html=1;fontSize=16;" vertex="1" parent="1">
          <mxGeometry x="1310" y="310" width="70" height="50" as="geometry" />
        </mxCell>
        <mxCell id="vRBI4vWx7eo8pq1-qWPK-13" value="" style="endArrow=classic;html=1;rounded=0;fontSize=12;startSize=8;endSize=8;curved=1;exitX=1;exitY=0;exitDx=0;exitDy=0;entryX=0;entryY=1;entryDx=0;entryDy=0;" edge="1" parent="1" source="vRBI4vWx7eo8pq1-qWPK-8" target="vRBI4vWx7eo8pq1-qWPK-9">
          <mxGeometry width="50" height="50" relative="1" as="geometry">
            <mxPoint x="1320" y="460" as="sourcePoint" />
            <mxPoint x="1370" y="410" as="targetPoint" />
          </mxGeometry>
        </mxCell>
        <mxCell id="vRBI4vWx7eo8pq1-qWPK-17" style="edgeStyle=none;curved=1;rounded=0;orthogonalLoop=1;jettySize=auto;html=1;entryX=0;entryY=0.5;entryDx=0;entryDy=0;fontSize=12;startSize=8;endSize=8;" edge="1" parent="1" source="vRBI4vWx7eo8pq1-qWPK-4" target="vRBI4vWx7eo8pq1-qWPK-4">
          <mxGeometry relative="1" as="geometry" />
        </mxCell>
        <mxCell id="vRBI4vWx7eo8pq1-qWPK-25" style="edgeStyle=none;curved=1;rounded=0;orthogonalLoop=1;jettySize=auto;html=1;entryX=0.045;entryY=0.713;entryDx=0;entryDy=0;entryPerimeter=0;fontSize=12;startSize=8;endSize=8;" edge="1" parent="1" source="vRBI4vWx7eo8pq1-qWPK-1" target="vRBI4vWx7eo8pq1-qWPK-6">
          <mxGeometry relative="1" as="geometry" />
        </mxCell>
        <mxCell id="vRBI4vWx7eo8pq1-qWPK-26" style="edgeStyle=none;curved=1;rounded=0;orthogonalLoop=1;jettySize=auto;html=1;fontSize=12;startSize=8;endSize=8;" edge="1" parent="1" source="vRBI4vWx7eo8pq1-qWPK-6" target="vRBI4vWx7eo8pq1-qWPK-29">
          <mxGeometry relative="1" as="geometry" />
        </mxCell>
        <mxCell id="vRBI4vWx7eo8pq1-qWPK-28" value="Comparative NPV" style="ellipse;whiteSpace=wrap;html=1;fontSize=16;" vertex="1" parent="1">
          <mxGeometry x="1530" y="420" width="120" height="100" as="geometry" />
        </mxCell>
        <mxCell id="vRBI4vWx7eo8pq1-qWPK-29" value="NPV" style="ellipse;whiteSpace=wrap;html=1;fontSize=16;" vertex="1" parent="1">
          <mxGeometry x="1420" y="480" width="70" height="60" as="geometry" />
        </mxCell>
        <mxCell id="vRBI4vWx7eo8pq1-qWPK-31" style="edgeStyle=none;curved=1;rounded=0;orthogonalLoop=1;jettySize=auto;html=1;entryX=0;entryY=0.5;entryDx=0;entryDy=0;fontSize=12;startSize=8;endSize=8;" edge="1" parent="1" source="vRBI4vWx7eo8pq1-qWPK-29" target="vRBI4vWx7eo8pq1-qWPK-28">
          <mxGeometry relative="1" as="geometry" />
        </mxCell>
        <mxCell id="vRBI4vWx7eo8pq1-qWPK-36" style="edgeStyle=none;curved=1;rounded=0;orthogonalLoop=1;jettySize=auto;html=1;fontSize=12;startSize=8;endSize=8;exitX=0.686;exitY=0.028;exitDx=0;exitDy=0;exitPerimeter=0;entryX=0.336;entryY=1.047;entryDx=0;entryDy=0;entryPerimeter=0;" edge="1" parent="1" source="vRBI4vWx7eo8pq1-qWPK-32" target="vRBI4vWx7eo8pq1-qWPK-34">
          <mxGeometry relative="1" as="geometry">
            <mxPoint x="1069.5947576397325" y="396.0694714328008" as="sourcePoint" />
            <mxPoint x="1107" y="360" as="targetPoint" />
          </mxGeometry>
        </mxCell>
        <mxCell id="vRBI4vWx7eo8pq1-qWPK-32" value="Costs" style="ellipse;whiteSpace=wrap;html=1;fontSize=16;" vertex="1" parent="1">
          <mxGeometry x="1043" y="390" width="60" height="50" as="geometry" />
        </mxCell>
        <mxCell id="vRBI4vWx7eo8pq1-qWPK-35" style="edgeStyle=none;curved=1;rounded=0;orthogonalLoop=1;jettySize=auto;html=1;fontSize=12;startSize=8;endSize=8;" edge="1" parent="1" source="vRBI4vWx7eo8pq1-qWPK-33" target="vRBI4vWx7eo8pq1-qWPK-34">
          <mxGeometry relative="1" as="geometry" />
        </mxCell>
        <mxCell id="vRBI4vWx7eo8pq1-qWPK-33" value="Risks" style="ellipse;whiteSpace=wrap;html=1;fontSize=16;" vertex="1" parent="1">
          <mxGeometry x="1011" y="210" width="60" height="50" as="geometry" />
        </mxCell>
        <mxCell id="vRBI4vWx7eo8pq1-qWPK-37" style="edgeStyle=none;curved=1;rounded=0;orthogonalLoop=1;jettySize=auto;html=1;fontSize=12;startSize=8;endSize=8;" edge="1" parent="1" source="vRBI4vWx7eo8pq1-qWPK-34" target="vRBI4vWx7eo8pq1-qWPK-4">
          <mxGeometry relative="1" as="geometry" />
        </mxCell>
        <mxCell id="vRBI4vWx7eo8pq1-qWPK-34" value="Efficacy" style="ellipse;whiteSpace=wrap;html=1;fontSize=16;" vertex="1" parent="1">
          <mxGeometry x="1077" y="280" width="70" height="50" as="geometry" />
        </mxCell>
      </root>
    </mxGraphModel>
  </diagram>
</mxfile>
